<svg viewBox="0 0 158 52" fill="none" xmlns="http://www.w3.org/2000/svg"><g clip-path="url(#apple-app-store_svg__a)"><path d="M144.55 0H11.078c-.407 0-.8 0-1.208.013-.88.026-1.758.078-2.625.234a8.908 8.908 0 0 0-2.494.819A8.584 8.584 0 0 0 2.625 2.6a7.897 7.897 0 0 0-1.549 2.106 8.706 8.706 0 0 0-.827 2.47c-.157.858-.21 1.729-.223 2.6 0 .403-.013.793-.026 1.196v30.055c0 .403 0 .793.026 1.196.027.871.079 1.742.237 2.6.157.871.406 1.69.826 2.47.394.78.92 1.482 1.55 2.093a7.964 7.964 0 0 0 2.126 1.534c.8.403 1.614.663 2.493.82.867.155 1.76.207 2.625.233.407 0 .801.013 1.208.013h134.877c.394 0 .814 0 1.207-.013.88-.026 1.759-.078 2.626-.234a9.141 9.141 0 0 0 2.507-.819 8.185 8.185 0 0 0 2.126-1.534 8.358 8.358 0 0 0 1.549-2.093 8.271 8.271 0 0 0 .813-2.47c.158-.858.21-1.729.25-2.6V9.79c-.026-.871-.079-1.742-.25-2.6a8.271 8.271 0 0 0-2.362-4.576 8.594 8.594 0 0 0-2.126-1.534 9.141 9.141 0 0 0-2.507-.819c-.867-.156-1.746-.208-2.626-.234-.393 0-.813-.013-1.207-.013h-1.418V0Z" fill="#B7B7B7"></path><path d="M11.077 50.855c-.394 0-.788 0-1.182-.013-.735-.026-1.601-.066-2.454-.209a7.788 7.788 0 0 1-2.179-.715 7.102 7.102 0 0 1-1.838-1.325 7.121 7.121 0 0 1-1.338-1.82 7.086 7.086 0 0 1-.71-2.158c-.157-.871-.196-1.768-.222-2.444 0-.273-.013-1.183-.013-1.183V10.97s0-.897.013-1.157c.013-.676.052-1.573.223-2.43.144-.794.367-1.509.709-2.159.354-.676.8-1.287 1.338-1.82A7.1 7.1 0 0 1 5.262 2.08a7.546 7.546 0 0 1 2.166-.702c.88-.156 1.785-.195 2.467-.208h1.182l134.89-.013h1.194c.669.04 1.575.078 2.441.234.788.143 1.51.364 2.192.715a7.374 7.374 0 0 1 3.164 3.146c.341.663.564 1.365.708 2.145.158.82.197 1.664.223 2.457V42.21c-.026.767-.078 1.612-.223 2.405a7.286 7.286 0 0 1-.708 2.17 7.073 7.073 0 0 1-1.339 1.808 6.803 6.803 0 0 1-1.838 1.325 7.869 7.869 0 0 1-2.192.715c-.84.156-1.706.195-2.454.209-.381 0-.788.013-1.181.013H11.064h.013Z" fill="#000"></path><path d="M32.513 26.391c-.04-3.575 2.953-5.317 3.098-5.395-1.693-2.444-4.318-2.782-5.237-2.808-2.205-.234-4.345 1.3-5.46 1.3-1.116 0-2.875-1.287-4.739-1.248-2.402.04-4.646 1.417-5.867 3.55-2.533 4.354-.643 10.75 1.785 14.273 1.22 1.73 2.639 3.653 4.502 3.575 1.825-.078 2.507-1.144 4.7-1.144 2.191 0 2.808 1.144 4.711 1.105 1.956-.026 3.19-1.729 4.358-3.47 1.404-1.977 1.969-3.927 1.995-4.018-.04-.013-3.793-1.43-3.833-5.72h-.013ZM28.931 15.873c.984-1.21 1.654-2.86 1.457-4.537-1.418.065-3.19.975-4.213 2.158-.906 1.04-1.707 2.756-1.497 4.368 1.588.117 3.23-.793 4.253-1.99ZM55.521 35.282h-6.208l-1.497 4.368h-2.625l5.88-16.146h2.73l5.88 16.146h-2.677l-1.496-4.368h.013Zm-5.565-2.015h4.922l-2.428-7.085h-.066l-2.428 7.085ZM72.4 33.76c0 3.653-1.983 6.006-4.962 6.006-1.694 0-3.032-.754-3.741-2.054h-.053v5.824h-2.44V27.87h2.362v1.963h.04c.682-1.261 2.125-2.08 3.78-2.08 3.018 0 5 2.366 5 6.006h.013Zm-2.508 0c0-2.38-1.247-3.952-3.137-3.952s-3.124 1.599-3.124 3.952c0 2.353 1.26 3.965 3.124 3.965s3.137-1.56 3.137-3.965ZM85.473 33.76c0 3.653-1.982 6.006-4.961 6.006-1.693 0-3.032-.754-3.74-2.054h-.053v5.824h-2.442V27.87h2.363v1.963h.04c.682-1.261 2.126-2.08 3.78-2.08 3.018 0 5 2.366 5 6.006h.013Zm-2.507 0c0-2.38-1.246-3.952-3.137-3.952-1.89 0-3.123 1.599-3.123 3.952 0 2.353 1.26 3.965 3.123 3.965 1.864 0 3.137-1.56 3.137-3.965ZM94.123 35.151c.183 1.6 1.745 2.652 3.898 2.652s3.531-1.053 3.531-2.496c0-1.248-.893-2.002-3.006-2.522l-2.113-.507c-2.993-.715-4.384-2.106-4.384-4.355 0-2.782 2.454-4.692 5.933-4.692 3.478 0 5.801 1.91 5.88 4.692h-2.468c-.144-1.612-1.496-2.587-3.452-2.587-1.955 0-3.307.988-3.307 2.418 0 1.144.853 1.807 2.953 2.327l1.798.442c3.347.78 4.738 2.12 4.738 4.472 0 3.016-2.428 4.914-6.287 4.914-3.61 0-6.05-1.846-6.208-4.77h2.494v.012ZM109.402 25.09v2.782h2.257v1.91h-2.257v6.488c0 1.014.446 1.482 1.444 1.482.249 0 .643-.04.8-.052v1.898c-.275.065-.813.117-1.352.117-2.402 0-3.347-.897-3.347-3.172v-6.747h-1.732v-1.911h1.732v-2.782h2.455v-.013ZM112.957 33.758c0-3.705 2.205-6.031 5.631-6.031s5.631 2.326 5.631 6.031c0 3.705-2.179 6.032-5.631 6.032-3.452 0-5.631-2.314-5.631-6.032Zm8.794 0c0-2.535-1.181-4.043-3.15-4.043-1.969 0-3.15 1.509-3.15 4.043 0 2.535 1.168 4.043 3.15 4.043s3.15-1.482 3.15-4.043ZM126.254 27.872h2.323v2.002h.053c.367-1.326 1.457-2.132 2.861-2.132.354 0 .643.052.84.091v2.262c-.197-.078-.617-.143-1.089-.143-1.575 0-2.547 1.053-2.547 2.704v6.981h-2.441V27.872ZM143.567 36.19c-.328 2.131-2.428 3.6-5.119 3.6-3.452 0-5.604-2.288-5.604-5.98 0-3.692 2.152-6.083 5.499-6.083 3.347 0 5.355 2.235 5.355 5.81v.833h-8.387v.143c0 2.014 1.273 3.327 3.203 3.327 1.352 0 2.415-.637 2.743-1.65h2.31Zm-8.243-3.51h5.946c-.052-1.808-1.22-2.99-2.914-2.99-1.693 0-2.9 1.208-3.032 2.99ZM49.655 11.349c2.324 0 3.689 1.417 3.689 3.848 0 2.43-1.352 3.9-3.689 3.9H46.82v-7.761h2.835v.013Zm-1.614 6.656h1.47c1.64 0 2.586-1.014 2.586-2.795s-.958-2.77-2.586-2.77h-1.47v5.565ZM54.707 16.17c0-1.884 1.063-3.041 2.783-3.041s2.782 1.144 2.782 3.042-1.063 3.042-2.782 3.042c-1.72 0-2.783-1.144-2.783-3.042Zm4.37 0c0-1.273-.577-2.014-1.587-2.014-1.011 0-1.589.74-1.589 2.015 0 1.274.565 2.015 1.589 2.015 1.023 0 1.588-.741 1.588-2.015ZM67.692 19.112h-1.208l-1.22-4.316h-.093l-1.22 4.316h-1.194l-1.628-5.85h1.181l1.063 4.472h.092l1.22-4.472h1.117l1.22 4.472h.092l1.05-4.472h1.168l-1.627 5.85h-.013ZM70.684 13.248h1.128v.937h.092c.289-.65.88-1.04 1.76-1.04 1.312 0 2.047.78 2.047 2.17v3.796h-1.168v-3.497c0-.936-.407-1.404-1.274-1.404-.866 0-1.417.572-1.417 1.482v3.42h-1.168v-5.864ZM77.559 10.973h1.168v8.137h-1.168v-8.137ZM80.356 16.17c0-1.884 1.063-3.041 2.782-3.041 1.72 0 2.783 1.144 2.783 3.042s-1.064 3.042-2.783 3.042c-1.72 0-2.782-1.144-2.782-3.042Zm4.37 0c0-1.273-.577-2.014-1.588-2.014-1.01 0-1.588.74-1.588 2.015 0 1.274.564 2.015 1.588 2.015s1.588-.741 1.588-2.015ZM87.156 17.448c0-1.053.788-1.665 2.192-1.742l1.602-.091v-.508c0-.623-.407-.961-1.208-.961-.656 0-1.103.233-1.234.65H87.38c.118-1.002 1.077-1.651 2.415-1.651 1.484 0 2.324.728 2.324 1.963v4.003h-1.13v-.819h-.091c-.354.585-.998.923-1.772.923-1.142 0-1.969-.675-1.969-1.755v-.012Zm3.793-.495v-.494l-1.443.091c-.814.052-1.182.325-1.182.845s.46.832 1.09.832c.88 0 1.535-.558 1.535-1.274ZM93.652 16.173c0-1.846.959-3.016 2.455-3.016.814 0 1.496.377 1.811 1.027h.092v-3.211h1.168v8.137h-1.115v-.922h-.092c-.355.637-1.037 1.027-1.851 1.027-1.51 0-2.455-1.17-2.455-3.03l-.013-.012Zm1.208 0c0 1.248.59 1.989 1.575 1.989.984 0 1.588-.754 1.588-1.99 0-1.234-.617-1.988-1.588-1.988-.971 0-1.575.754-1.575 1.989ZM103.996 16.17c0-1.884 1.063-3.041 2.783-3.041 1.719 0 2.782 1.144 2.782 3.042s-1.063 3.042-2.782 3.042c-1.72 0-2.783-1.144-2.783-3.042Zm4.371 0c0-1.273-.578-2.014-1.588-2.014-1.011 0-1.588.74-1.588 2.015 0 1.274.564 2.015 1.588 2.015 1.023 0 1.588-.741 1.588-2.015ZM111.137 13.248h1.129v.937h.091c.289-.65.88-1.04 1.759-1.04 1.313 0 2.048.78 2.048 2.17v3.796h-1.168v-3.497c0-.936-.407-1.404-1.274-1.404-.866 0-1.417.572-1.417 1.482v3.42h-1.168v-5.864ZM122.751 11.793v1.482h1.286v.975h-1.286v3.016c0 .61.249.884.84.884.184 0 .276 0 .446-.026v.962c-.183.026-.407.065-.63.065-1.299 0-1.811-.455-1.811-1.586v-3.302h-.932v-.975h.932v-1.482h1.168l-.013-.013ZM125.613 10.973h1.155v3.224h.092c.289-.65.906-1.053 1.798-1.053 1.26 0 2.035.793 2.035 2.184v3.782h-1.168v-3.496c0-.936-.433-1.404-1.26-1.404-.959 0-1.484.598-1.484 1.482v3.418h-1.168v-8.137ZM137.504 17.526c-.262 1.052-1.207 1.69-2.559 1.69-1.693 0-2.73-1.145-2.73-3.017 0-1.872 1.063-3.055 2.73-3.055s2.638 1.118 2.638 2.952v.402h-4.174v.066c.04 1.026.643 1.677 1.575 1.677.709 0 1.195-.247 1.405-.715h1.129-.014Zm-4.108-1.886h2.98c-.027-.923-.591-1.52-1.457-1.52-.867 0-1.47.598-1.536 1.52h.013Z" fill="#fff"></path></g><defs><clipPath id="apple-app-store_svg__a"><path fill="#fff" d="M0 0h157.059v51.999H0z"></path></clipPath></defs></svg>