<svg xmlns="http://www.w3.org/2000/svg" width="60" height="81" fill="none">
  <circle cx="37" cy="58" r="23" fill="#4000FF"/>
  <path fill="#fff" fill-rule="evenodd" d="M42.213 49C45.99 49 49 52.124 49 55.92c0 4.067-1.852 7.282-4.067 9.593-2.201 2.298-4.808 3.757-6.477 4.339-.307.109-.653.148-.956.148-.303 0-.65-.04-.956-.148-1.669-.582-4.276-2.041-6.477-4.339C27.852 63.202 26 59.987 26 55.92c0-3.796 3.01-6.92 6.787-6.92 1.84 0 3.5.747 4.713 1.95a6.756 6.756 0 0 1 1.666-1.21 6.677 6.677 0 0 1 3.047-.74Zm-9.426 1.75c-2.742 0-5.018 2.283-5.018 5.17 0 3.503 1.587 6.307 3.582 8.39 2.006 2.093 4.375 3.402 5.784 3.892l.01.003c.053.02.181.045.355.045.173 0 .302-.025.356-.045l.009-.003c1.41-.49 3.778-1.799 5.784-3.892 1.995-2.083 3.582-4.887 3.582-8.39 0-2.887-2.276-5.17-5.017-5.17a4.89 4.89 0 0 0-2.232.542 5.017 5.017 0 0 0-1.764 1.516.888.888 0 0 1-1.436.001c-.917-1.259-2.367-2.059-3.995-2.059Z" clip-rule="evenodd"/>
  <path fill="#4000FF" d="M26.02 25.669a1.642 1.642 0 0 1-.93-.21c-2.002-1.25-6.143-5.512-4.93-10.871.535-2.366 2.834-3.858 5.136-3.337 1.364.309 2.418 1.255 2.94 2.468a4.274 4.274 0 0 1 1.75-.93 4.178 4.178 0 0 1 1.966-.032c2.301.52 3.734 2.857 3.199 5.223-1.213 5.36-6.786 7.423-9.131 7.689ZM6.247 30.185a.94.94 0 0 1-.52.168c-1.35-.03-4.632-.917-5.6-3.908-.429-1.32.267-2.726 1.551-3.142a2.41 2.41 0 0 1 2.168.355c.119-.366.32-.698.59-.968a2.39 2.39 0 0 1 .957-.59c1.285-.416 2.672.314 3.1 1.635.969 2.991-1.17 5.634-2.246 6.45ZM11.319 9.547a1.1 1.1 0 0 1-.631.1C9.13 9.365 5.495 7.738 4.92 4.099 4.668 2.493 5.73.993 7.292.747a2.823 2.823 0 0 1 2.443.808c.205-.402.5-.749.86-1.013A2.8 2.8 0 0 1 11.81.034c1.563-.246 3.035.854 3.288 2.46.574 3.64-2.385 6.306-3.78 7.053Z"/>
</svg>