<svg xmlns="http://www.w3.org/2000/svg" width="35" height="35" fill="none">
  <path fill="#4000FF" d="M9.7 5.428c.518 0 .938.42.938.939 0 3.697 1.168 5.85 4.614 8.878l.534.46.57.476.604.493 1.296 1.032.62.505.297.247.57.484.274.238.522.467c3.463 3.157 4.742 5.658 4.742 9.832a.938.938 0 0 1-1.877 0 13.9 13.9 0 0 0-.078-1.532H12.275c.133-.661.332-1.279.607-1.876h10.049a8.46 8.46 0 0 0-.897-1.9l-.001.024h-7.991c.325-.42.697-.84 1.118-1.274l.325-.326.289-.278 4.807.001a26.191 26.191 0 0 0-2.054-1.947l-.552-.468-.587-.484-.368-.298-.059.049-.605.493c-.098.08-.194.16-.289.24l-.551.468c-.356.307-.69.605-1 .896l-.45.431c-2.533 2.491-3.428 4.545-3.428 7.781a.938.938 0 0 1-1.876 0c0-3.767 1.04-6.17 3.79-8.924l.46-.45c.396-.378.825-.764 1.287-1.163l.57-.484.603-.497.048-.039-.049-.039-.603-.497c-4.498-3.761-6.107-6.337-6.107-11.02 0-.518.42-.938.939-.938Zm14.643 0c.518 0 .938.42.938.939 0 3.766-1.04 6.17-3.789 8.923l-.46.45c-.347.33-.717.665-1.113 1.01l-.727-.545-.804-.615.14-.116c.355-.308.688-.606 1-.896l.45-.432c.255-.251.494-.498.717-.742h-4.889a14.5 14.5 0 0 1-1.664-1.877h7.983a8.385 8.385 0 0 0 .845-1.876h-9.894a7.965 7.965 0 0 1-.515-1.877H23.34c.045-.445.066-.913.066-1.407 0-.519.42-.939.938-.939Z"/>
</svg>