<svg viewBox="0 0 176 52" fill="none" xmlns="http://www.w3.org/2000/svg"><g clip-path="url(#google-play-store_svg__a)"><path d="M169.224 0H7.094C3.514 0 .61 2.91.61 6.5v39c0 3.59 2.904 6.5 6.486 6.5h162.129c3.581 0 6.485-2.91 6.485-6.5v-39c0-3.59-2.904-6.5-6.485-6.5Z" fill="#000"></path><path d="M169.224 1.04a5.453 5.453 0 0 1 5.447 5.46v39a5.453 5.453 0 0 1-5.447 5.46H7.094a5.453 5.453 0 0 1-5.447-5.46v-39a5.453 5.453 0 0 1 5.448-5.46h162.129Zm0-1.04H7.094C3.529 0 .61 2.925.61 6.5v39c0 3.574 2.919 6.5 6.486 6.5h162.129c3.567 0 6.485-2.926 6.485-6.5v-39c0-3.575-2.918-6.5-6.485-6.5Z" fill="#A6A6A6"></path><path d="M53.482 16.575a6.719 6.719 0 0 1-2.244.402c-1.102 0-2.023-.285-2.737-.974-.635-.611-1.024-1.587-1.024-2.73 0-2.184 1.504-3.796 3.969-3.796.843 0 1.504.182 1.828.338l-.233.767c-.39-.17-.882-.312-1.621-.312-1.777 0-2.945 1.104-2.945 2.95s1.116 2.964 2.828 2.964c.622 0 1.037-.09 1.258-.195v-2.184h-1.492v-.766h2.413V16.575ZM58.928 13.455h-2.853v2.652h3.177v.793h-4.111V9.555h3.956v.793h-3.01v2.314h2.854v.78l-.013.013ZM62.274 10.36h-2.231v-.805h5.422v.806H63.22V16.9h-.96v-6.54h.013ZM69.966 9.555V16.9h-.947V9.555h.947ZM73.223 10.36h-2.23v-.805h5.42v.806H74.17V16.9h-.96v-6.54h.013ZM86.232 13.155c0 2.522-1.53 3.861-3.398 3.861s-3.295-1.508-3.295-3.718c0-2.326 1.44-3.86 3.398-3.86 1.959 0 3.295 1.534 3.295 3.717Zm-5.681.117c0 1.573.843 2.977 2.334 2.977 1.492 0 2.348-1.378 2.348-3.055 0-1.456-.765-2.99-2.335-2.99-1.569 0-2.347 1.444-2.347 3.055v.013ZM87.684 16.9V9.555h1.037l2.348 3.718c.545.858.973 1.638 1.31 2.379h.026c-.091-.988-.104-1.885-.104-3.03V9.556h.895V16.9h-.96l-2.322-3.731c-.505-.82-.998-1.651-1.374-2.444h-.04c.053.936.079 1.82.079 3.042V16.9h-.895Z" fill="#fff" stroke="#fff" stroke-width="0.2" stroke-miterlimit="10"></path><path d="M82.223 28.271c-3.049 0-5.539 2.327-5.539 5.525 0 3.198 2.49 5.525 5.539 5.525 3.048 0 5.538-2.34 5.538-5.525 0-3.185-2.49-5.525-5.538-5.525Zm0 8.88c-1.674 0-3.113-1.379-3.113-3.355s1.44-3.354 3.113-3.354 3.112 1.365 3.112 3.354c0 1.99-1.44 3.354-3.112 3.354Zm-12.076-8.88c-3.048 0-5.538 2.327-5.538 5.525 0 3.198 2.49 5.525 5.538 5.525s5.538-2.34 5.538-5.525c0-3.185-2.49-5.525-5.538-5.525Zm0 8.88c-1.673 0-3.113-1.379-3.113-3.355s1.44-3.354 3.113-3.354 3.113 1.365 3.113 3.354c0 1.99-1.44 3.354-3.113 3.354Zm-14.37-7.19v2.34h5.602c-.168 1.313-.61 2.288-1.27 2.951-.818.82-2.09 1.716-4.32 1.716-3.45 0-6.148-2.782-6.148-6.24s2.698-6.24 6.148-6.24c1.855 0 3.217.728 4.215 1.677l1.648-1.65c-1.401-1.34-3.256-2.367-5.876-2.367-4.721 0-8.69 3.848-8.69 8.593s3.969 8.593 8.69 8.593c2.555 0 4.475-.832 5.98-2.405 1.543-1.547 2.023-3.73 2.023-5.486 0-.546-.04-1.053-.13-1.469h-7.873v-.013Zm58.768 1.82c-.454-1.235-1.855-3.523-4.722-3.523-2.866 0-5.201 2.236-5.201 5.525 0 3.094 2.335 5.525 5.474 5.525 2.529 0 3.995-1.547 4.591-2.444l-1.88-1.26c-.623.922-1.479 1.533-2.711 1.533-1.232 0-2.114-.559-2.672-1.677l7.38-3.055-.246-.624h-.013Zm-7.523 1.846c-.065-2.132 1.647-3.224 2.879-3.224.96 0 1.777.481 2.05 1.17l-4.929 2.054Zm-5.992 5.356h2.425v-16.25h-2.425v16.25Zm-3.97-9.49h-.077c-.545-.65-1.583-1.235-2.906-1.235-2.762 0-5.291 2.431-5.291 5.551s2.529 5.512 5.291 5.512c1.31 0 2.361-.585 2.906-1.26h.078v.792c0 2.12-1.129 3.25-2.945 3.25-1.478 0-2.4-1.066-2.775-1.963l-2.114.884c.61 1.47 2.218 3.263 4.89 3.263 2.84 0 5.24-1.677 5.24-5.759v-9.932H97.06v.897Zm-2.775 7.644c-1.673 0-3.074-1.404-3.074-3.328s1.4-3.367 3.074-3.367c1.673 0 2.944 1.43 2.944 3.367s-1.297 3.328-2.944 3.328Zm31.622-14.404h-5.798v16.25h2.425v-6.162h3.386c2.684 0 5.317-1.95 5.317-5.044 0-3.094-2.633-5.044-5.317-5.044h-.013Zm.064 7.84h-3.437v-5.578h3.437c1.816 0 2.841 1.508 2.841 2.782s-1.025 2.782-2.841 2.782v.013Zm14.955-2.34c-1.751 0-3.567.78-4.319 2.482l2.153.897c.454-.897 1.31-1.196 2.205-1.196 1.245 0 2.529.754 2.542 2.093v.17c-.441-.248-1.374-.625-2.529-.625-2.322 0-4.669 1.274-4.669 3.653 0 2.171 1.894 3.575 4.021 3.575 1.621 0 2.529-.728 3.087-1.586h.077v1.248h2.335v-6.227c0-2.886-2.153-4.498-4.929-4.498l.026.013Zm-.298 8.904c-.791 0-1.894-.403-1.894-1.378 0-1.248 1.375-1.729 2.568-1.729 1.064 0 1.57.234 2.205.546a2.929 2.929 0 0 1-2.879 2.574v-.013Zm13.723-8.554-2.776 7.046h-.078l-2.879-7.046h-2.607l4.319 9.854-2.465 5.473h2.53l6.653-15.327h-2.697Zm-21.804 10.4h2.426v-16.25h-2.426v16.25Z" fill="#fff"></path><path d="M27.737 25.443 17.539 36.288a2.756 2.756 0 0 0 2.662 2.044c.507 0 .986-.135 1.398-.384l.029-.02 11.47-6.63-5.371-5.864.01.01Z" fill="#EA4335"></path><path d="M38.05 23.6h-.01l-4.95-2.89-5.582 4.982 5.601 5.614 4.931-2.85a2.766 2.766 0 0 0 1.446-2.428 2.73 2.73 0 0 0-1.436-2.419v-.01Z" fill="#FBBC04"></path><path d="M17.541 15.71c-.057.231-.096.462-.096.711v19.156c0 .25.029.48.096.71L28.083 25.72 17.541 15.71Z" fill="#4285F4"></path><path d="m27.813 25.998 5.276-5.288-11.461-6.66c-.412-.25-.9-.394-1.427-.394a2.767 2.767 0 0 0-2.662 2.044l10.274 10.288v.01Z" fill="#34A853"></path></g><defs><clipPath id="google-play-store_svg__a"><path fill="#fff" transform="translate(.61)" d="M0 0h175.099v51.999H0z"></path></clipPath></defs></svg>