<svg xmlns="http://www.w3.org/2000/svg" width="35" height="35" fill="none">
  <path fill="#4000FF" fill-rule="evenodd" d="M11.615 12.18a5.515 5.515 0 0 1 5.56-5.561 5.515 5.515 0 0 1 5.561 5.56v5.16a5.515 5.515 0 0 1-5.56 5.562 5.515 5.515 0 0 1-5.56-5.561v-5.16Zm5.56-3.824c-2.147 0-3.822 1.675-3.822 3.823v5.16c0 2.149 1.675 3.824 3.823 3.824 2.147 0 3.823-1.675 3.823-3.823v-5.16c0-2.149-1.676-3.824-3.823-3.824Z" clip-rule="evenodd"/>
  <path fill="#4000FF" d="M8.698 17.63a.938.938 0 0 1 1.056.803c.498 3.652 3.653 6.406 7.406 6.414h.032c3.753-.008 6.907-2.762 7.405-6.414a.938.938 0 1 1 1.86.254c-.585 4.289-4.075 7.567-8.343 7.99v2.861a.938.938 0 0 1-1.876 0v-2.86c-4.268-.424-7.758-3.702-8.343-7.991a.938.938 0 0 1 .803-1.057Z"/>
</svg>