<svg xmlns="http://www.w3.org/2000/svg" width="1919" height="491" viewBox="0 0 1919 491" fill="none">
  <path d="M1914 116.001V34.0008C1914 25.1642 1906.84 18.0008 1898 18.0008H1676C1667.16 18.0008 1660 25.1642 1660 34.0008V93.1654C1660 101.324 1653.9 108.132 1645.83 109.332C1557.38 122.48 1413.87 176.713 1393.5 406C1377.33 587.989 1175 425.313 1290.5 223.5C1348.99 121.293 1238 83.5005 1148.5 187.501C963.972 401.924 1019.83 167.188 1095.5 46.5C1157 -51.5883 934.5 34.0004 913 223.5C881.996 496.76 675.243 322.711 582 223.5C519.5 157.001 601 131 447 79.5C284.5 25.1575 165 163 5.5 187.501" stroke="#4000FF" stroke-width="10" stroke-linecap="round"/>
</svg>