<svg xmlns="http://www.w3.org/2000/svg" width="447" height="342" fill="none">
  <path stroke="#4000FF" stroke-linecap="round" stroke-width="10" d="M5.161 301.277C118.31 261.174 199.751 468.851 264.4 180.49 294.991 44.041 397.6 50.065 442 97.806"/>
  <path stroke="#4000FF" stroke-linecap="round" stroke-width="10" d="M269.348 150.471c-12.511-18.693-30.128-51.688-22.333-91.026"/>
  <path stroke="#4000FF" stroke-linecap="round" stroke-width="10" d="M279.441 103.827c-.037 8.301-14.011 19.174-19.748 28.65M271.321 84.36c-.037 8.301-14.011 19.174-19.748 28.65M266.363 61.965c-.037 8.3-14.011 19.174-19.748 28.65M388.052 64.106c4.586-4.436 12.843-10.963 23.738-10.345M411.973 98.524c-2.582-4.508-6.007-11.832-2.796-16.472M316.265 84.934c1.548-17.858 7.054-47.152 31.519-67.714"/>
  <path stroke="#4000FF" stroke-linecap="round" stroke-width="10" d="M350.465 49.602c-4.164 5.141-18.272 4.93-26.564 7.958M358.553 31.3c-4.163 5.141-18.271 4.93-26.563 7.958M296.387 118.571c17.053 5.523 46.181 11.85 74.643-2.686"/>
  <path stroke="#4000FF" stroke-linecap="round" stroke-width="10" d="M342.242 100.815c-6.356 1.835-11.65 14.913-17.667 21.374M362.249 100.486c-6.356 1.834-11.65 14.913-17.667 21.373M241.936 246.252c-15.906-15.905-47.717-58.915-47.717-103.713"/>
  <path stroke="#4000FF" stroke-linecap="round" stroke-width="10" d="M242.769 198.536c1.578 8.15-10.016 21.532-13.802 31.942M231.021 181.019c1.577 8.15-10.017 21.531-13.802 31.942M221.804 160.014c1.578 8.15-10.016 21.532-13.802 31.943M213.376 137.432c1.578 8.15-10.016 21.532-13.802 31.943M261.654 202.786c22.298 2.961 65.288 0 93.456-21.097"/>
  <path stroke="#4000FF" stroke-linecap="round" stroke-width="10" d="M299.035 173.118c-7.43 3.702-11.008 21.042-16.973 30.377M320.086 171.798c-7.43 3.702-11.008 21.042-16.973 30.377M342.367 166.347c-7.43 3.702-11.008 21.043-16.973 30.377M227.939 294.929c22.322 2.772 75.802 1.435 111.142-26.096"/>
  <path stroke="#4000FF" stroke-linecap="round" stroke-width="10" d="M265.069 264.946c-7.399 3.765-10.83 21.134-16.716 30.519M286.108 263.449c-7.398 3.764-10.83 21.134-16.716 30.519M308.342 257.812c-7.398 3.764-10.829 21.134-16.716 30.518M331.336 250.582c-7.399 3.765-10.83 21.134-16.716 30.519"/>
</svg>