<svg xmlns="http://www.w3.org/2000/svg" width="34" height="35" fill="none">
  <path fill="#4000FF" fill-rule="evenodd" d="M18.938 7.121a2.816 2.816 0 0 1 2.815 2.815v2.816h2.815a2.816 2.816 0 0 1 2.815 2.814v9.384a2.816 2.816 0 0 1-2.815 2.815h-9.383a2.816 2.816 0 0 1-2.815-2.815v-2.815H9.555A2.816 2.816 0 0 1 6.74 19.32V9.936a2.816 2.816 0 0 1 2.815-2.815h9.383Zm-4.691 15.014v2.815c0 .518.42.938.938.938h9.383c.518 0 .939-.42.939-.938v-9.383a.939.939 0 0 0-.939-.939h-2.815v4.692a2.816 2.816 0 0 1-2.815 2.815h-4.691Zm5.63-7.507v4.692c0 .518-.421.938-.939.938h-4.691v-4.691c0-.518.42-.939.938-.939h4.691Zm0-1.877h-4.692a2.816 2.816 0 0 0-2.815 2.816v4.691H9.555a.939.939 0 0 1-.939-.938V9.936c0-.517.421-.938.939-.938h9.383c.518 0 .939.42.939.938v2.816Z" clip-rule="evenodd"/>
</svg>