<svg xmlns="http://www.w3.org/2000/svg" width="32" height="31" fill="none">
  <path fill="#fff" fill-rule="evenodd" d="M19.625 6.647c0-.76-.253-1.352-.422-1.437-.184.184-.412.59-.62.96-.08.14-.155.276-.225.392-.185.259-.37.55-.561.852-.247.389-.506.796-.791 1.176-1.268 1.69-3.634 2.958-5.24 3.634v9.042h9.211c.423 0 .761-.254.846-.676l1.436-6.76a.73.73 0 0 0-.169-.677c-.084-.168-.338-.338-.676-.338h-2.197c-.591 0-1.098-.253-1.437-.76-.338-.507-.338-1.099-.169-1.606.423-1.098 1.014-2.957 1.014-3.802Zm-2.823-.868c.739-1.258 1.328-2.259 2.317-2.259 1.352 0 2.197 1.352 2.281 3.127 0 1.52-1.183 4.394-1.183 4.394h2.113c1.605 0 2.788 1.436 2.45 3.042l-1.436 6.76c-.254 1.183-1.268 2.028-2.451 2.028H10.077v-11.83c1.183-.423 4.225-1.69 5.577-3.465.447-.605.813-1.227 1.148-1.797ZM6.697 10.196h1.69v13.52h-1.69v-13.52Z" clip-rule="evenodd"/>
</svg>