<svg xmlns="http://www.w3.org/2000/svg" width="737" height="252" viewBox="0 0 737 252" fill="none">
  <path d="M200 6L189.932 0.345768L190.069 11.892L200 6ZM2.15255 145.031C2.11956 144.48 1.64589 144.06 1.0946 144.093C0.543298 144.126 0.123128 144.599 0.15612 145.151L2.15255 145.031ZM0.0371453 137.206C0.0217063 137.758 0.456731 138.218 1.0088 138.233C1.56087 138.249 2.02092 137.814 2.03636 137.262L0.0371453 137.206ZM2.37543 131.443C2.42387 130.893 2.01714 130.408 1.46699 130.359C0.91683 130.311 0.431573 130.718 0.383135 131.268L2.37543 131.443ZM1.38101 123.381C1.29127 123.926 1.66029 124.441 2.20524 124.53C2.75018 124.62 3.26469 124.251 3.35443 123.706L1.38101 123.381ZM4.46017 117.97C4.5793 117.431 4.23869 116.897 3.69941 116.778C3.16012 116.659 2.62638 116.999 2.50725 117.539L4.46017 117.97ZM4.48316 109.884C4.32653 110.414 4.62889 110.97 5.1585 111.127C5.68811 111.283 6.24442 110.981 6.40104 110.451L4.48316 109.884ZM8.20218 104.895C8.386 104.374 8.11284 103.803 7.59204 103.619C7.07125 103.436 6.50004 103.709 6.31622 104.23L8.20218 104.895ZM9.20505 96.8562C8.98625 97.3633 9.21995 97.9518 9.72705 98.1706C10.2341 98.3894 10.8226 98.1557 11.0414 97.6486L9.20505 96.8562ZM13.4899 92.3463C13.7339 91.8509 13.5302 91.2514 13.0348 91.0073C12.5393 90.7632 11.9399 90.967 11.6958 91.4624L13.4899 92.3463ZM15.4316 84.4763C15.1552 84.9544 15.3187 85.5661 15.7968 85.8425C16.275 86.119 16.8867 85.9555 17.1631 85.4773L15.4316 84.4763ZM20.2091 80.4957C20.5086 80.0317 20.3754 79.4128 19.9114 79.1132C19.4474 78.8136 18.8284 78.9469 18.5289 79.4109L20.2091 80.4957ZM23.0369 72.9002C22.7081 73.3439 22.8013 73.9702 23.245 74.299C23.6888 74.6278 24.3151 74.5346 24.6439 74.0909L23.0369 72.9002ZM28.232 69.4814C28.5814 69.0537 28.518 68.4238 28.0903 68.0743C27.6626 67.7249 27.0326 67.7883 26.6832 68.216L28.232 69.4814ZM31.8776 62.2456C31.5025 62.651 31.527 63.2837 31.9323 63.6588C32.3377 64.0339 32.9704 64.0094 33.3455 63.604L31.8776 62.2456ZM37.417 59.399C37.8099 59.0109 37.8139 58.3778 37.4258 57.9848C37.0378 57.5918 36.4046 57.5879 36.0117 57.9759L37.417 59.399ZM41.8012 52.5833C41.3864 52.948 41.3457 53.5798 41.7103 53.9946C42.0749 54.4094 42.7068 54.4501 43.1216 54.0855L41.8012 52.5833ZM47.6106 50.3052C48.0405 49.9584 48.1077 49.3288 47.7609 48.899C47.4141 48.4692 46.7845 48.4019 46.3547 48.7487L47.6106 50.3052ZM52.6337 43.957C52.1859 44.2803 52.0849 44.9053 52.4081 45.3531C52.7313 45.801 53.3564 45.902 53.8042 45.5788L52.6337 43.957ZM58.5943 42.2608C59.0542 41.955 59.1792 41.3343 58.8735 40.8744C58.5677 40.4145 57.947 40.2895 57.4871 40.5952L58.5943 42.2608ZM64.1742 36.3859C63.6998 36.6686 63.5444 37.2824 63.8271 37.7569C64.1098 38.2313 64.7236 38.3867 65.198 38.104L64.1742 36.3859ZM70.3119 35.1793C70.796 34.9136 70.9731 34.3057 70.7074 33.8215C70.4417 33.3373 69.8338 33.1603 69.3496 33.426L70.3119 35.1793ZM76.3501 29.787C75.8545 30.0308 75.6505 30.6302 75.8943 31.1257C76.1381 31.6213 76.7375 31.8253 77.2331 31.5815L76.3501 29.787ZM82.5011 29.0929C83.0041 28.8649 83.2271 28.2723 82.9991 27.7693C82.771 27.2663 82.1784 27.0433 81.6754 27.2713L82.5011 29.0929ZM88.9423 24.1543C88.4305 24.3618 88.1839 24.9449 88.3914 25.4568C88.5989 25.9686 89.182 26.2152 89.6939 26.0077L88.9423 24.1543ZM95.1646 23.881C95.6822 23.6883 95.9455 23.1124 95.7527 22.5949C95.56 22.0773 94.9841 21.814 94.4666 22.0068L95.1646 23.881ZM101.886 19.3967C101.361 19.5706 101.078 20.1366 101.252 20.6607C101.425 21.1849 101.991 21.4688 102.516 21.2949L101.886 19.3967ZM108.153 19.5057C108.681 19.3454 108.98 18.787 108.819 18.2585C108.659 17.73 108.101 17.4315 107.572 17.5918L108.153 19.5057ZM115.122 15.4362C114.588 15.5793 114.272 16.1278 114.415 16.6612C114.558 17.1946 115.106 17.511 115.64 17.3679L115.122 15.4362ZM121.324 15.9137C121.861 15.7829 122.19 15.2419 122.059 14.7053C121.928 14.1688 121.387 13.8398 120.851 13.9705L121.324 15.9137ZM128.563 12.2118C128.023 12.3268 127.678 12.8579 127.793 13.3981C127.908 13.9383 128.439 14.283 128.979 14.168L128.563 12.2118ZM134.691 13.0143C135.234 12.9105 135.589 12.3866 135.486 11.8442C135.382 11.3017 134.858 10.9461 134.315 11.0499L134.691 13.0143ZM142.141 9.66087C141.596 9.75025 141.227 10.2645 141.316 10.8095C141.405 11.3545 141.92 11.7239 142.465 11.6345L142.141 9.66087ZM148.195 10.7494C148.742 10.6701 149.121 10.1628 149.041 9.6162C148.962 9.06964 148.455 8.69084 147.908 8.77012L148.195 10.7494ZM155.796 7.72314C155.248 7.78931 154.857 8.28744 154.923 8.83574C154.989 9.38405 155.487 9.7749 156.036 9.70874L155.796 7.72314ZM161.792 9.06314C162.341 9.00613 162.74 8.5146 162.683 7.96526C162.626 7.41593 162.135 7.01682 161.585 7.07382L161.792 9.06314ZM169.51 6.33911C168.96 6.38418 168.55 6.86694 168.595 7.41738C168.64 7.96782 169.123 8.37751 169.674 8.33244L169.51 6.33911ZM175.451 7.90374C176.002 7.86701 176.419 7.39051 176.382 6.83945C176.345 6.28838 175.869 5.87144 175.318 5.90817L175.451 7.90374ZM183.24 5.45903C182.689 5.48491 182.262 5.95312 182.288 6.5048C182.314 7.05647 182.782 7.48272 183.334 7.45683L183.24 5.45903ZM189.153 7.22447C189.705 7.20623 190.137 6.74397 190.119 6.19199C190.101 5.64 189.638 5.20732 189.087 5.22556L189.153 7.22447ZM196.979 5.03584C196.427 5.04423 195.986 5.49869 195.995 6.05091C196.003 6.60313 196.457 7.044 197.01 7.03561L196.979 5.03584ZM2.37595 147.904C2.28574 146.966 2.21099 146.008 2.15255 145.031L0.15612 145.151C0.215979 146.151 0.292585 147.133 0.38513 148.096L2.37595 147.904ZM2.03636 137.262C2.0893 135.369 2.20075 133.427 2.37543 131.443L0.383135 131.268C0.204983 133.291 0.0912045 135.273 0.0371453 137.206L2.03636 137.262ZM3.35443 123.706C3.66501 121.82 4.03243 119.906 4.46017 117.97L2.50725 117.539C2.07168 119.51 1.69743 121.46 1.38101 123.381L3.35443 123.706ZM6.40104 110.451C6.94499 108.612 7.54445 106.759 8.20218 104.895L6.31622 104.23C5.64691 106.126 5.03682 108.012 4.48316 109.884L6.40104 110.451ZM11.0414 97.6486C11.8025 95.8845 12.6179 94.116 13.4899 92.3463L11.6958 91.4624C10.8089 93.2625 9.9794 95.0616 9.20505 96.8562L11.0414 97.6486ZM17.1631 85.4773C18.1251 83.8134 19.1398 82.1519 20.2091 80.4957L18.5289 79.4109C17.4417 81.0948 16.4099 82.7842 15.4316 84.4763L17.1631 85.4773ZM24.6439 74.0909C25.7886 72.546 26.9841 71.0088 28.232 69.4814L26.6832 68.216C25.4153 69.7679 24.2004 71.33 23.0369 72.9002L24.6439 74.0909ZM33.3455 63.604C34.6537 62.1903 36.0104 60.788 37.417 59.399L36.0117 57.9759C34.5837 59.3861 33.2061 60.8099 31.8776 62.2456L33.3455 63.604ZM43.1216 54.0855C44.5716 52.8109 46.0676 51.5503 47.6106 50.3052L46.3547 48.7487C44.7899 50.0114 43.2724 51.2902 41.8012 52.5833L43.1216 54.0855ZM53.8042 45.5788C55.3583 44.4571 56.9547 43.3506 58.5943 42.2608L57.4871 40.5952C55.8263 41.6992 54.2088 42.8202 52.6337 43.957L53.8042 45.5788ZM65.198 38.104C66.8623 37.1123 68.5667 36.137 70.3119 35.1793L69.3496 33.426C67.5839 34.395 65.859 35.382 64.1742 36.3859L65.198 38.104ZM77.2331 31.5815C78.9528 30.7353 80.7086 29.9055 82.5011 29.0929L81.6754 27.2713C79.8638 28.0925 78.0889 28.9314 76.3501 29.787L77.2331 31.5815ZM89.6939 26.0077C91.4836 25.282 93.307 24.5729 95.1646 23.881L94.4666 22.0068C92.5912 22.7053 90.7499 23.4213 88.9423 24.1543L89.6939 26.0077ZM102.516 21.2949C104.363 20.6818 106.242 20.0852 108.153 19.5057L107.572 17.5918C105.645 18.1763 103.75 18.7781 101.886 19.3967L102.516 21.2949ZM115.64 17.3679C117.506 16.8673 119.401 16.3823 121.324 15.9137L120.851 13.9705C118.912 14.4428 117.003 14.9315 115.122 15.4362L115.64 17.3679ZM128.979 14.168C130.857 13.7684 132.761 13.3836 134.691 13.0143L134.315 11.0499C132.372 11.4218 130.455 11.8093 128.563 12.2118L128.979 14.168ZM142.465 11.6345C144.351 11.3251 146.261 11.03 148.195 10.7494L147.908 8.77012C145.962 9.05245 144.04 9.34948 142.141 9.66087L142.465 11.6345ZM156.036 9.70874C157.932 9.47985 159.851 9.26454 161.792 9.06314L161.585 7.07382C159.634 7.27636 157.704 7.4929 155.796 7.72314L156.036 9.70874ZM169.674 8.33244C171.579 8.17645 173.504 8.03346 175.451 7.90374L175.318 5.90817C173.361 6.03855 171.426 6.18229 169.51 6.33911L169.674 8.33244ZM183.334 7.45683C185.254 7.36674 187.194 7.28921 189.153 7.22447L189.087 5.22556C187.119 5.2906 185.17 5.3685 183.24 5.45903L183.334 7.45683Z" fill="#4000FF"/>
  <path d="M623.001 242L633.128 247.547L632.868 236.003L623.001 242ZM734.495 73.4737C734.493 74.026 734.939 74.4752 735.491 74.4772C736.044 74.4791 736.493 74.0329 736.495 73.4806L734.495 73.4737ZM736.428 81.3938C736.436 80.8415 735.994 80.3878 735.442 80.3802C734.89 80.3727 734.436 80.8142 734.428 81.3665L736.428 81.3938ZM734.322 87.2789C734.31 87.831 734.748 88.2886 735.3 88.301C735.852 88.3133 736.31 87.8757 736.322 87.3236L734.322 87.2789ZM736.094 95.2425C736.114 94.6906 735.682 94.2273 735.13 94.2077C734.578 94.1881 734.115 94.6197 734.095 95.1716L736.094 95.2425ZM733.853 101.093C733.827 101.645 734.254 102.113 734.806 102.138C735.357 102.164 735.825 101.738 735.851 101.186L733.853 101.093ZM735.418 109.097C735.453 108.545 735.035 108.07 734.483 108.035C733.932 108.001 733.457 108.419 733.422 108.97L735.418 109.097ZM733.009 114.865C732.967 115.416 733.379 115.897 733.929 115.939C734.48 115.982 734.961 115.57 735.003 115.019L733.009 114.865ZM734.313 122.914C734.367 122.364 733.965 121.875 733.415 121.821C732.866 121.767 732.376 122.169 732.322 122.718L734.313 122.914ZM731.695 128.589C731.631 129.138 732.024 129.634 732.573 129.698C733.122 129.761 733.618 129.368 733.681 128.819L731.695 128.589ZM732.668 136.685C732.746 136.138 732.366 135.631 731.819 135.554C731.272 135.476 730.766 135.856 730.688 136.402L732.668 136.685ZM729.789 142.253C729.699 142.798 730.068 143.312 730.613 143.402C731.158 143.492 731.673 143.124 731.762 142.579L729.789 142.253ZM730.344 150.387C730.452 149.845 730.1 149.318 729.559 149.211C729.017 149.103 728.491 149.455 728.383 149.996L730.344 150.387ZM727.151 155.773C727.028 156.311 727.365 156.847 727.904 156.97C728.442 157.093 728.978 156.756 729.101 156.217L727.151 155.773ZM727.179 163.925C727.324 163.392 727.009 162.843 726.476 162.698C725.943 162.553 725.394 162.867 725.249 163.4L727.179 163.925ZM723.604 169.062C723.441 169.589 723.736 170.15 724.263 170.313C724.791 170.476 725.351 170.181 725.515 169.654L723.604 169.062ZM722.968 177.189C723.159 176.671 722.893 176.096 722.375 175.905C721.857 175.715 721.282 175.98 721.091 176.499L722.968 177.189ZM718.941 181.977C718.728 182.487 718.969 183.073 719.478 183.286C719.988 183.499 720.573 183.258 720.787 182.749L718.941 181.977ZM717.482 189.995C717.728 189.501 717.526 188.901 717.031 188.655C716.537 188.409 715.937 188.611 715.691 189.106L717.482 189.995ZM712.94 194.297C712.668 194.778 712.838 195.388 713.319 195.66C713.799 195.932 714.409 195.762 714.681 195.281L712.94 194.297ZM710.492 202.067C710.8 201.609 710.679 200.988 710.221 200.679C709.763 200.371 709.142 200.492 708.833 200.95L710.492 202.067ZM705.405 205.708C705.068 206.146 705.149 206.774 705.587 207.111C706.024 207.448 706.652 207.366 706.989 206.929L705.405 205.708ZM701.835 213.034C702.21 212.629 702.186 211.996 701.78 211.621C701.375 211.246 700.742 211.271 700.367 211.676L701.835 213.034ZM696.241 215.834C695.838 216.212 695.818 216.845 696.196 217.248C696.574 217.651 697.207 217.671 697.609 217.293L696.241 215.834ZM691.529 222.478C691.966 222.14 692.046 221.512 691.709 221.075C691.371 220.638 690.743 220.558 690.306 220.896L691.529 222.478ZM685.548 224.311C685.089 224.617 684.964 225.237 685.27 225.697C685.576 226.157 686.196 226.282 686.656 225.976L685.548 224.311ZM679.809 230.085C680.295 229.823 680.477 229.216 680.215 228.73C679.952 228.244 679.346 228.062 678.86 228.325L679.809 230.085ZM673.611 230.934C673.109 231.163 672.887 231.757 673.117 232.259C673.346 232.761 673.94 232.982 674.442 232.753L673.611 230.934ZM667.055 235.763C667.574 235.575 667.844 235.002 667.656 234.483C667.469 233.963 666.895 233.694 666.376 233.881L667.055 235.763ZM660.794 235.715C660.265 235.873 659.964 236.43 660.121 236.959C660.279 237.488 660.836 237.79 661.365 237.632L660.794 235.715ZM653.655 239.633C654.194 239.513 654.533 238.978 654.413 238.439C654.292 237.9 653.757 237.561 653.218 237.682L653.655 239.633ZM647.427 238.83C646.883 238.925 646.519 239.443 646.614 239.987C646.709 240.531 647.226 240.895 647.771 240.801L647.427 238.83ZM639.888 241.939C640.437 241.875 640.83 241.379 640.766 240.83C640.703 240.281 640.206 239.888 639.658 239.952L639.888 241.939ZM633.819 240.514C633.269 240.556 632.857 241.037 632.899 241.588C632.942 242.138 633.423 242.55 633.973 242.508L633.819 240.514ZM626.046 242.932C626.598 242.915 627.032 242.454 627.015 241.902C626.998 241.349 626.537 240.916 625.985 240.933L626.046 242.932ZM734.5 70.5C734.5 71.4934 734.498 72.4846 734.495 73.4737L736.495 73.4806C736.498 72.4892 736.5 71.4956 736.5 70.5L734.5 70.5ZM734.428 81.3665C734.401 83.3472 734.366 85.3182 734.322 87.2789L736.322 87.3236C736.366 85.3568 736.401 83.38 736.428 81.3938L734.428 81.3665ZM734.095 95.1716C734.025 97.1572 733.945 99.1311 733.853 101.093L735.851 101.186C735.943 99.2164 736.024 97.2351 736.094 95.2425L734.095 95.1716ZM733.422 108.97C733.297 110.949 733.16 112.914 733.009 114.865L735.003 115.019C735.155 113.059 735.293 111.084 735.418 109.097L733.422 108.97ZM732.322 122.718C732.129 124.692 731.92 126.649 731.695 128.589L733.681 128.819C733.908 126.867 734.118 124.898 734.313 122.914L732.322 122.718ZM730.688 136.402C730.407 138.372 730.108 140.323 729.789 142.253L731.762 142.579C732.084 140.633 732.385 138.668 732.668 136.685L730.688 136.402ZM728.383 149.996C727.995 151.945 727.585 153.871 727.151 155.773L729.101 156.217C729.539 154.297 729.953 152.353 730.344 150.387L728.383 149.996ZM725.249 163.4C724.728 165.315 724.18 167.203 723.604 169.062L725.515 169.654C726.098 167.771 726.652 165.862 727.179 163.925L725.249 163.4ZM721.091 176.499C720.407 178.357 719.691 180.184 718.941 181.977L720.787 182.749C721.548 180.928 722.275 179.074 722.968 177.189L721.091 176.499ZM715.691 189.106C714.813 190.875 713.896 192.605 712.94 194.297L714.681 195.281C715.656 193.557 716.589 191.795 717.482 189.995L715.691 189.106ZM708.833 200.95C707.735 202.579 706.593 204.166 705.405 205.708L706.989 206.929C708.204 205.352 709.371 203.731 710.492 202.067L708.833 200.95ZM700.367 211.676C699.041 213.109 697.667 214.496 696.241 215.834L697.609 217.293C699.07 215.921 700.478 214.501 701.835 213.034L700.367 211.676ZM690.306 220.896C688.772 222.082 687.187 223.221 685.548 224.311L686.656 225.976C688.334 224.86 689.958 223.693 691.529 222.478L690.306 220.896ZM678.86 228.325C677.161 229.241 675.412 230.111 673.611 230.934L674.442 232.753C676.283 231.912 678.071 231.022 679.809 230.085L678.86 228.325ZM666.376 233.881C664.563 234.536 662.703 235.147 660.794 235.715L661.365 237.632C663.309 237.053 665.206 236.43 667.055 235.763L666.376 233.881ZM653.218 237.682C651.332 238.103 649.402 238.486 647.427 238.83L647.771 240.801C649.775 240.451 651.736 240.062 653.655 239.633L653.218 237.682ZM639.658 239.952C637.75 240.173 635.804 240.361 633.819 240.514L633.973 242.508C635.983 242.353 637.954 242.163 639.888 241.939L639.658 239.952Z" fill="#4000FF"/>
  <path d="M47 245.25L57 251.023L57 239.476L47 245.25ZM57.9855 246.25C59.9772 246.25 61.9804 246.25 63.9937 246.25V244.25C61.9804 244.25 59.9772 244.25 57.9855 244.25V246.25ZM71.9953 246.25C73.9876 246.25 75.9879 246.25 77.9951 246.25L77.9951 244.25C75.9879 244.25 73.9876 244.25 71.9953 244.25L71.9953 246.25ZM85.9955 246.25C87.9904 246.25 89.9904 246.25 91.9944 246.25V244.25C89.9904 244.25 87.9904 244.25 85.9955 244.25V246.25ZM99.9966 246.25C101.995 246.25 103.997 246.25 105.999 246.25V244.25C103.997 244.25 101.995 244.25 99.9966 244.25V246.25ZM114.001 246.25C116.001 246.25 118.002 246.25 120.001 246.25V244.25C118.002 244.25 116.001 244.25 114.001 244.25V246.25ZM128.002 246.25C130.007 246.25 132.008 246.25 134.006 246.25V244.25C132.008 244.25 130.007 244.25 128.002 244.25V246.25ZM142.008 246.25C144.014 246.25 146.015 246.25 148.008 246.25V244.25C146.015 244.25 144.014 244.25 142.008 244.25L142.008 246.25ZM156.009 246.25C158.016 246.25 160.014 246.25 162.002 246.25V244.25C160.014 244.25 158.016 244.25 156.009 244.25V246.25ZM170.002 246.25C172.019 246.25 174.023 246.25 176.014 246.25V244.25C174.023 244.25 172.019 244.25 170.002 244.25V246.25ZM184.015 246.25C186.035 246.25 188.038 246.25 190.022 246.25V244.25C188.038 244.25 186.035 244.25 184.015 244.25V246.25ZM198.023 246.25C200.048 246.25 202.049 246.25 204.027 246.25V244.25C202.049 244.25 200.048 244.25 198.023 244.25V246.25ZM212.028 246.25C214.061 246.25 216.062 246.25 218.032 246.25V244.25C216.062 244.25 214.061 244.25 212.028 244.25V246.25ZM226.029 246.25C228.073 246.25 230.075 246.25 232.033 246.25V244.25C230.075 244.25 228.073 244.25 226.029 244.25V246.25ZM240.003 246.25C242.071 246.25 244.077 246.25 246.016 246.25V244.25C244.077 244.25 242.071 244.25 240.003 244.25V246.25ZM254.04 246.25C256.135 246.25 258.124 246.25 260.001 246.25V244.25C258.124 244.25 256.135 244.25 254.04 244.25V246.25ZM268.016 246.25C269.073 246.25 270.068 246.25 271.001 246.25V244.25C270.068 244.25 269.073 244.25 268.016 244.25V246.25Z" fill="#4000FF"/>
  <path d="M365 6.00002C404.369 6.00002 536.674 6.00001 638 6" stroke="#4000FF" stroke-width="2" stroke-dasharray="6 8"/>
  <path d="M286 94L280.227 104L291.774 104L286 94ZM287 172L287 169.214L285 169.214L285 172L287 172ZM287 161.786L287 156.214L285 156.214L285 161.786L287 161.786ZM287 148.786L287 143.214L285 143.214L285 148.786L287 148.786ZM287 135.786L287 130.214L285 130.214L285 135.786L287 135.786ZM287 122.786L287 117.214L285 117.214L285 122.786L287 122.786ZM287 109.786L287 104.214L285 104.214L285 109.786L287 109.786Z" fill="#4000FF"/>
</svg>